<?xml version="1.0" encoding="UTF-8" standalone="no"?>
<!-- Created with Inkscape (http://www.inkscape.org/) -->

<svg
   width="12.34663mm"
   height="16.173901mm"
   viewBox="0 0 12.34663 16.173901"
   version="1.1"
   id="svg1"
   xmlns="http://www.w3.org/2000/svg"
   xmlns:svg="http://www.w3.org/2000/svg">
  <defs
     id="defs1" />
  <g
     id="layer1"
     transform="translate(-154.43146,-198.03703)">
    <g
       id="g2"
       transform="matrix(0.96951017,0,0,0.98815619,11.50533,1.7536855)">
      <g
         id="g43"
         transform="matrix(0.13495295,0,0,0.1345469,75.558154,92.178585)">
        <g
           id="g37"
           transform="translate(59.914213,91.496132)">
          <g
             id="g35"
             transform="translate(-8.8225193,-16.223432)">
            <path
               style="fill:#000000;stroke-width:1.04274"
               d="m 508.10797,772.33943 3.53535,-3.4042 c 0,0 -5.73214,-12.6773 -3.11111,-19.1485 3.67676,-9.0778 6.15009,-17.4797 26.72726,-18.723 23.47473,-1.4184 25.73234,17.1654 26.86866,25.1058 0.32209,2.2507 1.34692,-0.5865 2.92738,2.0363 1.4963,2.4831 -3.61699,14.5947 -8.44253,17.8214 -6.36363,4.2553 -13.71715,8.5105 -26.30301,8.2268 -12.58585,-0.2837 -19.37372,-3.2623 -21.07069,-6.0991 -1.69697,-2.8369 -1.13131,-5.8155 -1.13131,-5.8155 z"
               id="path6" />
            <ellipse
               style="fill:#ffffff;fill-opacity:1;stroke:#640400;stroke-width:0.543208;stroke-linecap:butt;stroke-linejoin:miter;stroke-dasharray:none;stroke-dashoffset:0;stroke-opacity:1"
               id="ellipse6"
               cx="518.93225"
               cy="760.72827"
               rx="5.0707169"
               ry="8.5251608" />
            <ellipse
               style="fill:#ffffff;fill-opacity:1;stroke:#640400;stroke-width:0.543208;stroke-linecap:butt;stroke-linejoin:miter;stroke-dasharray:none;stroke-dashoffset:0;stroke-opacity:1"
               id="ellipse7"
               cx="533.5921"
               cy="760.67871"
               rx="6.320868"
               ry="10.626983" />
            <path
               style="fill:#000000;fill-opacity:1;stroke:none;stroke-width:1.25886;stroke-dasharray:none;stroke-opacity:0.413793"
               d="m 510.86161,756.21493 -6.89461,1.1662 c 0,0 -17.31911,5.1184 -21.8039,-0.3638 -2.32325,-2.8399 1.4786,-9.8077 1.4786,-9.8077 0,0 2.02048,-3.6742 6.42099,-8.0451 2.94534,-2.9256 7.89959,-6.5193 7.89959,-6.5193 0,0 -13.01216,-1.8374 -7.19963,-6.2184 20.65032,-15.5644 51.79732,-6.1181 51.79732,-6.1181 0,0 11.26557,-4.8398 15.99917,-4.3127 6.81674,0.7591 0.18786,21.9112 0.18786,21.9112 0,0 21.42785,1.9434 16.2113,8.5789 -5.33229,6.7828 -7.99959,6.7199 -13.4993,11.9353 -5.49972,5.2155 -24.79872,-12.2361 -24.79872,-12.2361 l -22.09886,6.118 z"
               id="path7" />
            <path
               style="fill:#000000;fill-opacity:1;stroke:none;stroke-width:1.25886;stroke-dasharray:none;stroke-opacity:0.413793"
               d="m 529.10795,789.36033 c 1.26271,-1.4406 16.13371,-8.9459 22.90907,-4.8226 11.83766,7.204 9.9697,38.5807 9.9697,38.5807 0,0 -38.72866,1.3745 -40.303,-0.3546 -1.54232,-1.694 3.81089,-29.2812 7.42423,-33.4035 z"
               id="path29" />
            <path
               style="fill:#000000;fill-opacity:1;stroke:none;stroke-width:1.33102;stroke-dasharray:none;stroke-opacity:0.413793"
               d="m 529.10795,822.48013 c 0,0 -2.45043,14.352 0.56358,14.6789 3.86921,0.4198 6.30653,0.5432 7.24201,-2.1028 1.08129,-3.0585 0.39644,-12.3383 0.39644,-12.3383 z"
               id="path30" />
            <ellipse
               style="fill:#000000;fill-opacity:1;stroke:none;stroke-width:1.25886;stroke-dasharray:none;stroke-opacity:0.413793"
               id="circle30"
               cx="514.16144"
               cy="804.45764"
               rx="4.9997411"
               ry="5.0148296" />
            <ellipse
               style="fill:#000000;fill-opacity:1;stroke:none;stroke-width:1.25886;stroke-dasharray:none;stroke-opacity:0.413793"
               id="circle31"
               cx="567.25867"
               cy="803.85583"
               rx="4.1997828"
               ry="4.2124577" />
            <path
               style="fill:#640400;fill-opacity:1;stroke:none;stroke-width:0.543208;stroke-linecap:butt;stroke-linejoin:miter;stroke-dasharray:none;stroke-dashoffset:0;stroke-opacity:1"
               d="m 533.21046,788.30983 2.24988,2.5074 3.7998,-4.3629 z"
               id="path31-2" />
            <path
               style="fill:#640400;fill-opacity:1;stroke:none;stroke-width:0.543208;stroke-linecap:butt;stroke-linejoin:miter;stroke-dasharray:none;stroke-dashoffset:0;stroke-opacity:1"
               d="m 535.66032,791.87033 -4.04978,17.2511 1.99989,2.8584 z"
               id="path32" />
            <path
               style="fill:#000000;fill-opacity:1;stroke:none;stroke-width:1.33102;stroke-dasharray:none;stroke-opacity:0.413793"
               d="m 544.63181,823.17893 c 0,0 -0.27067,14.5584 2.75809,14.427 3.88814,-0.1687 6.31625,-0.4143 6.84434,-3.1714 0.61042,-3.1867 -1.45802,-12.2577 -1.45802,-12.2577 z"
               id="path33" />
          </g>
        </g>
      </g>
    </g>
  </g>
</svg>
